<mxfile host="app.diagrams.net" modified="2023-09-07T21:35:55.830Z" agent="Mozilla/5.0 (Windows NT 10.0; Win64; x64; rv:109.0) Gecko/20100101 Firefox/117.0" etag="w4iMntGf1rXrVqfRvyUR" version="21.7.2" type="github">
  <diagram name="Page-1" id="_JbfzIH_LN_2cETkmu2Q">
    <mxGraphModel dx="1075" dy="472" grid="1" gridSize="10" guides="1" tooltips="1" connect="1" arrows="1" fold="1" page="1" pageScale="1" pageWidth="850" pageHeight="1100" math="0" shadow="0">
      <root>
        <mxCell id="0" />
        <mxCell id="1" parent="0" />
        <mxCell id="W6VQIt4pcHZWFb5B0Ys1-2" style="edgeStyle=orthogonalEdgeStyle;rounded=0;orthogonalLoop=1;jettySize=auto;html=1;" edge="1" parent="1" source="W6VQIt4pcHZWFb5B0Ys1-1">
          <mxGeometry relative="1" as="geometry">
            <mxPoint x="415" y="110" as="targetPoint" />
          </mxGeometry>
        </mxCell>
        <mxCell id="W6VQIt4pcHZWFb5B0Ys1-1" value="basla" style="ellipse;whiteSpace=wrap;html=1;" vertex="1" parent="1">
          <mxGeometry x="360" y="10" width="110" height="60" as="geometry" />
        </mxCell>
        <mxCell id="W6VQIt4pcHZWFb5B0Ys1-4" style="edgeStyle=orthogonalEdgeStyle;rounded=0;orthogonalLoop=1;jettySize=auto;html=1;" edge="1" parent="1" source="W6VQIt4pcHZWFb5B0Ys1-3">
          <mxGeometry relative="1" as="geometry">
            <mxPoint x="415" y="240" as="targetPoint" />
          </mxGeometry>
        </mxCell>
        <mxCell id="W6VQIt4pcHZWFb5B0Ys1-3" value="&lt;div&gt;10&#39;dan 110&#39;a&lt;/div&gt;&lt;div&gt;kadar her i sayisi&lt;/div&gt;&lt;div&gt;icin&lt;br&gt;&lt;/div&gt;" style="shape=hexagon;perimeter=hexagonPerimeter2;whiteSpace=wrap;html=1;fixedSize=1;" vertex="1" parent="1">
          <mxGeometry x="355" y="110" width="120" height="80" as="geometry" />
        </mxCell>
        <mxCell id="W6VQIt4pcHZWFb5B0Ys1-6" style="edgeStyle=orthogonalEdgeStyle;rounded=0;orthogonalLoop=1;jettySize=auto;html=1;" edge="1" parent="1" source="W6VQIt4pcHZWFb5B0Ys1-5">
          <mxGeometry relative="1" as="geometry">
            <mxPoint x="415" y="350" as="targetPoint" />
          </mxGeometry>
        </mxCell>
        <mxCell id="W6VQIt4pcHZWFb5B0Ys1-5" value="i nin karekoku" style="rounded=0;whiteSpace=wrap;html=1;" vertex="1" parent="1">
          <mxGeometry x="355" y="240" width="120" height="60" as="geometry" />
        </mxCell>
        <mxCell id="W6VQIt4pcHZWFb5B0Ys1-7" value="&lt;div&gt;Eger sonuc&lt;/div&gt;&lt;div&gt;tam sayi ise&lt;br&gt;&lt;/div&gt;" style="rhombus;whiteSpace=wrap;html=1;" vertex="1" parent="1">
          <mxGeometry x="350" y="350" width="130" height="110" as="geometry" />
        </mxCell>
        <mxCell id="W6VQIt4pcHZWFb5B0Ys1-9" value="" style="endArrow=classic;html=1;rounded=0;" edge="1" parent="1">
          <mxGeometry width="50" height="50" relative="1" as="geometry">
            <mxPoint x="600" y="150" as="sourcePoint" />
            <mxPoint x="475" y="149.66" as="targetPoint" />
          </mxGeometry>
        </mxCell>
        <mxCell id="W6VQIt4pcHZWFb5B0Ys1-10" value="" style="endArrow=none;html=1;rounded=0;" edge="1" parent="1">
          <mxGeometry width="50" height="50" relative="1" as="geometry">
            <mxPoint x="480" y="404.5" as="sourcePoint" />
            <mxPoint x="600" y="405" as="targetPoint" />
          </mxGeometry>
        </mxCell>
        <mxCell id="W6VQIt4pcHZWFb5B0Ys1-11" value="" style="endArrow=none;html=1;rounded=0;" edge="1" parent="1">
          <mxGeometry width="50" height="50" relative="1" as="geometry">
            <mxPoint x="600" y="150" as="sourcePoint" />
            <mxPoint x="600" y="270" as="targetPoint" />
          </mxGeometry>
        </mxCell>
        <mxCell id="W6VQIt4pcHZWFb5B0Ys1-12" value="" style="endArrow=none;html=1;rounded=0;" edge="1" parent="1">
          <mxGeometry width="50" height="50" relative="1" as="geometry">
            <mxPoint x="600" y="270" as="sourcePoint" />
            <mxPoint x="600" y="400" as="targetPoint" />
          </mxGeometry>
        </mxCell>
        <mxCell id="W6VQIt4pcHZWFb5B0Ys1-13" value="False" style="text;html=1;align=center;verticalAlign=middle;resizable=0;points=[];autosize=1;strokeColor=none;fillColor=none;" vertex="1" parent="1">
          <mxGeometry x="485" y="368" width="50" height="30" as="geometry" />
        </mxCell>
        <mxCell id="W6VQIt4pcHZWFb5B0Ys1-14" value="True" style="text;html=1;align=center;verticalAlign=middle;resizable=0;points=[];autosize=1;strokeColor=none;fillColor=none;" vertex="1" parent="1">
          <mxGeometry x="450" y="478" width="50" height="30" as="geometry" />
        </mxCell>
        <mxCell id="W6VQIt4pcHZWFb5B0Ys1-15" value="" style="edgeStyle=none;orthogonalLoop=1;jettySize=auto;html=1;rounded=0;" edge="1" parent="1">
          <mxGeometry width="100" relative="1" as="geometry">
            <mxPoint x="414.5" y="460" as="sourcePoint" />
            <mxPoint x="414.5" y="540" as="targetPoint" />
            <Array as="points" />
          </mxGeometry>
        </mxCell>
        <mxCell id="W6VQIt4pcHZWFb5B0Ys1-17" style="edgeStyle=orthogonalEdgeStyle;rounded=0;orthogonalLoop=1;jettySize=auto;html=1;" edge="1" parent="1" source="W6VQIt4pcHZWFb5B0Ys1-16">
          <mxGeometry relative="1" as="geometry">
            <mxPoint x="600" y="400" as="targetPoint" />
          </mxGeometry>
        </mxCell>
        <mxCell id="W6VQIt4pcHZWFb5B0Ys1-18" style="edgeStyle=orthogonalEdgeStyle;rounded=0;orthogonalLoop=1;jettySize=auto;html=1;" edge="1" parent="1">
          <mxGeometry relative="1" as="geometry">
            <mxPoint x="414.71" y="680" as="targetPoint" />
            <mxPoint x="414.71" y="610" as="sourcePoint" />
          </mxGeometry>
        </mxCell>
        <mxCell id="W6VQIt4pcHZWFb5B0Ys1-16" value="i" style="shape=document;whiteSpace=wrap;html=1;boundedLbl=1;" vertex="1" parent="1">
          <mxGeometry x="355" y="540" width="120" height="80" as="geometry" />
        </mxCell>
        <mxCell id="W6VQIt4pcHZWFb5B0Ys1-19" value="bitir" style="ellipse;whiteSpace=wrap;html=1;" vertex="1" parent="1">
          <mxGeometry x="355" y="680" width="120" height="80" as="geometry" />
        </mxCell>
      </root>
    </mxGraphModel>
  </diagram>
</mxfile>
